<?xml version="1.0" encoding="utf-8"?>
<!-- Generator: Adobe Illustrator 27.3.1, SVG Export Plug-In . SVG Version: 6.00 Build 0)  -->
<svg version="1.1" id="Слой_1" xmlns="http://www.w3.org/2000/svg" xmlns:xlink="http://www.w3.org/1999/xlink" x="0px" y="0px"
	 viewBox="0 0 1024 1024" style="enable-background:new 0 0 1024 1024;" xml:space="preserve">
<style type="text/css">
	.st0{fill:none;stroke:#C4C4C4;stroke-width:17;stroke-miterlimit:10;}
</style>
<g>
	<path class="st0" d="M45.46,325.14l1.44,377.41h89.92l0.11-100.77l28.37-28.96l110.45,128.43l119.38-0.46L226.51,514.95
		c0,0,172.29-192.43,172.29-193.16c0-0.07-126.69-0.34-126.69-0.34l-1.03,1.1L138.77,462.98l-0.01-137.1L45.46,325.14z"/>
	<polygon class="st0" points="397.2,700.8 487.41,700.8 486.82,466.44 663.29,700.8 730.99,700.8 730.99,466.44 906.95,700.69 
		978.54,700.8 978.32,321.85 887.95,321.85 888.39,539.73 719.18,321.85 644.45,321.85 644.73,539.73 471.9,321.85 397.2,321.85 	
		"/>
</g>
</svg>
